<svg width="12" height="16" viewBox="0 0 12 16" fill="none" xmlns="http://www.w3.org/2000/svg">
<path d="M5.32318 0C5.37541 0.142977 5.46681 0.285955 5.47116 0.428932C5.48857 0.916737 5.47987 1.40875 5.47987 1.91337C5.67138 1.91337 5.81937 1.91337 6.01959 1.91337C6.01959 1.64003 6.01959 1.36669 6.01959 1.09756C6.01959 0.933558 6.00653 0.752733 6.25462 0.756939C6.50272 0.761144 6.4766 0.950379 6.4766 1.11018C6.48096 1.3709 6.4766 1.63162 6.4766 1.93019C6.642 1.93019 6.76823 1.93019 6.8988 1.93019C8.10881 1.93019 9.31882 1.9344 10.5288 1.92599C10.9206 1.92599 11.2731 1.99327 11.4342 2.38436C11.5996 2.77544 11.4472 3.06981 11.099 3.30109C11.0424 3.33894 11.012 3.45248 11.012 3.53238C11.0076 7.15307 11.012 10.7738 11.012 14.3944C11.012 14.4155 11.0207 14.4365 11.0381 14.5122C11.247 14.5122 11.469 14.4828 11.6823 14.5248C11.7998 14.5458 11.8955 14.6804 12 14.7645C11.8955 14.8402 11.7998 14.9327 11.6866 14.9874C11.6213 15.021 11.5256 14.9958 11.4385 14.9958C7.80849 14.9958 4.18281 14.9958 0.552775 14.9958C0.457018 14.9958 0.348205 15.021 0.269859 14.9874C0.16975 14.9327 0.0914037 14.836 0 14.7603C0.0957563 14.6762 0.178455 14.5416 0.282916 14.5248C0.500544 14.487 0.726877 14.5122 0.974973 14.5122C0.983678 14.3734 0.992383 14.2641 0.992383 14.1548C0.992383 10.6602 0.996736 7.16569 0.98803 3.67115C0.98803 3.53238 0.931447 3.35997 0.831338 3.26745C0.583243 3.03616 0.422198 2.79647 0.539717 2.45164C0.657236 2.11102 0.905332 1.9344 1.32753 1.9344C2.42002 1.93019 3.50816 1.9344 4.60065 1.93019C4.72688 1.93019 4.8531 1.93019 5.0185 1.93019C5.0185 1.40454 5.00544 0.912532 5.0272 0.424727C5.03156 0.281749 5.12731 0.142977 5.1839 0C5.23177 0 5.27965 0 5.32318 0ZM6.99891 13.0362C8.19151 13.0362 9.34494 13.0362 10.494 13.0362C10.494 9.80656 10.494 6.60219 10.494 3.39361C7.48205 3.39361 4.48749 3.39361 1.50598 3.39361C1.50598 3.56182 1.50598 3.70479 1.50598 3.86459C1.67573 3.86459 1.81502 3.86459 1.95865 3.86459C3.87813 3.86459 5.80196 3.86459 7.72144 3.86459C7.83896 3.86459 7.96953 3.85198 8.06964 3.89823C8.14363 3.93188 8.23069 4.05383 8.22198 4.12532C8.21763 4.1968 8.10881 4.28511 8.02612 4.31876C7.94777 4.3524 7.83896 4.33137 7.7432 4.33137C5.79761 4.33137 3.85637 4.33137 1.91077 4.33137C1.77584 4.33137 1.63656 4.33137 1.49728 4.33137C1.49728 7.26661 1.49728 10.1472 1.49728 13.0404C2.67247 13.0404 3.83025 13.0404 4.99238 13.0404C5.04897 12.6745 5.2753 12.5484 5.61915 12.5652C5.86725 12.5778 6.11534 12.5778 6.36779 12.5652C6.72035 12.5526 6.94668 12.6829 6.99891 13.0362ZM5.99782 2.9016C6.92057 2.9016 7.84766 2.9016 8.7704 2.9016C9.38846 2.9016 10.0022 2.9016 10.6202 2.9016C10.8118 2.9016 11.025 2.87216 10.9902 2.65349C10.9728 2.55677 10.7421 2.48528 10.6028 2.40959C10.5767 2.39277 10.5332 2.40538 10.4984 2.40538C7.49946 2.40538 4.50054 2.40538 1.50163 2.40538C1.40588 2.40538 1.29271 2.37595 1.22307 2.418C1.12731 2.47687 1.02285 2.58621 1.00979 2.68293C1.00109 2.7418 1.14472 2.84693 1.23613 2.88898C1.31447 2.92262 1.42329 2.9016 1.51904 2.9016C3.01197 2.9016 4.5049 2.9016 5.99782 2.9016ZM1.49728 14.4912C2.68118 14.4912 3.8346 14.4912 4.99238 14.4912C4.99238 14.1674 4.99238 13.8646 4.99238 13.566C3.81284 13.566 2.66376 13.566 1.49728 13.566C1.49728 13.8772 1.49728 14.1716 1.49728 14.4912ZM10.5027 13.5618C9.32318 13.5618 8.16975 13.5618 7.00762 13.5618C7.00762 13.8856 7.00762 14.1842 7.00762 14.4912C8.18281 14.4912 9.33623 14.4912 10.5027 14.4912C10.5027 14.18 10.5027 13.8856 10.5027 13.5618ZM6.52013 14.487C6.52013 14.0496 6.52448 13.6333 6.51143 13.2128C6.51143 13.1539 6.41567 13.0488 6.35473 13.0446C6.08052 13.0278 5.80196 13.0362 5.51034 13.0362C5.51034 13.5492 5.51034 14.016 5.51034 14.487C5.85419 14.487 6.16757 14.487 6.52013 14.487Z" fill="white"/>
<path d="M9.22738 4.33593C9.07504 4.33593 8.914 4.36116 8.76601 4.32752C8.67461 4.30649 8.54403 4.20978 8.53968 4.14249C8.53532 4.06259 8.64414 3.90279 8.70943 3.89859C9.07504 3.87756 9.44066 3.88177 9.80627 3.90279C9.87156 3.907 9.98908 4.05839 9.97602 4.11306C9.95426 4.19716 9.84544 4.30649 9.75839 4.32752C9.58864 4.35696 9.40584 4.33593 9.22738 4.33593Z" fill="white"/>
<path d="M3.00753 5.2987C2.91178 5.2987 2.80296 5.32814 2.72897 5.29029C2.64192 5.24404 2.54181 5.15152 2.5244 5.06321C2.51569 5.00434 2.62886 4.88239 2.70721 4.86557C2.8639 4.83192 3.04235 4.81931 3.19469 4.85716C3.29915 4.88239 3.38185 5.00854 3.47326 5.08844C3.3775 5.15993 3.28174 5.23983 3.17728 5.2987C3.13811 5.31973 3.06847 5.2987 3.00753 5.2987Z" fill="white"/>
<path d="M8.98811 5.29476C8.89235 5.29476 8.79224 5.32 8.70954 5.28635C8.63555 5.26112 8.53979 5.17281 8.53979 5.11394C8.53979 5.02984 8.61379 4.88686 8.67037 4.87845C8.888 4.84901 9.11433 4.85322 9.33196 4.87424C9.3929 4.87845 9.48865 5.00881 9.47559 5.06768C9.46254 5.14758 9.37984 5.24851 9.29714 5.28215C9.21444 5.3242 9.09257 5.29476 8.98811 5.29476Z" fill="white"/>
<path d="M3.01202 10.6565C3.09472 10.6565 3.18612 10.6313 3.25576 10.6608C3.33846 10.6944 3.46033 10.7827 3.46033 10.8374C3.45598 10.9257 3.37328 11.0687 3.29493 11.0855C3.12954 11.1275 2.93803 11.1359 2.77263 11.1023C2.67252 11.0813 2.59853 10.9593 2.51147 10.8836C2.60723 10.8079 2.69863 10.7196 2.8031 10.6608C2.85968 10.6313 2.94238 10.6565 3.01202 10.6565Z" fill="white"/>
<path d="M9.0315 10.6556C9.11419 10.6556 9.20995 10.6303 9.27524 10.664C9.35794 10.7018 9.4624 10.7859 9.4711 10.8574C9.47981 10.9289 9.38841 11.0719 9.32312 11.0803C9.11855 11.1097 8.90092 11.1181 8.69635 11.0845C8.62671 11.0719 8.54401 10.9205 8.53966 10.8322C8.5353 10.7775 8.66588 10.6934 8.74858 10.664C8.83128 10.6345 8.93574 10.6556 9.0315 10.6556Z" fill="white"/>
<path d="M3.02077 11.6194C3.09041 11.6194 3.17311 11.5984 3.22969 11.6236C3.32109 11.6699 3.46908 11.7624 3.46037 11.8087C3.43861 11.9096 3.34721 12.0358 3.2558 12.0652C3.11652 12.1115 2.94242 12.1114 2.80314 12.0736C2.69432 12.0442 2.61163 11.9222 2.51587 11.8423C2.61598 11.7666 2.70738 11.6825 2.81184 11.6236C2.86407 11.5942 2.94677 11.6194 3.02077 11.6194Z" fill="white"/>
<path d="M9.00121 11.6236C9.09696 11.6236 9.20143 11.5984 9.27977 11.632C9.36247 11.6699 9.46258 11.7582 9.47128 11.8339C9.47564 11.9054 9.38423 12.0442 9.31894 12.0568C9.11437 12.0862 8.89675 12.0904 8.69218 12.061C8.62254 12.0484 8.54419 11.8928 8.54419 11.8002C8.54419 11.7414 8.67477 11.6657 8.75747 11.632C8.82711 11.5984 8.91851 11.6194 9.00121 11.6236Z" fill="white"/>
<path d="M2.88143 10.1421C2.89448 10.1421 2.78567 10.1631 2.71168 10.1252C2.62898 10.0874 2.51581 9.97805 2.52887 9.92339C2.54628 9.83928 2.64639 9.72574 2.73344 9.70472C2.87707 9.66687 3.04247 9.66687 3.1861 9.70051C3.29492 9.72574 3.38197 9.83508 3.47773 9.90657C3.38632 9.98646 3.29927 10.079 3.19481 10.1421C3.14693 10.1673 3.05988 10.1421 2.88143 10.1421Z" fill="white"/>
<path d="M9.02728 9.69272C9.10998 9.69272 9.21009 9.66328 9.27102 9.70113C9.35808 9.75159 9.45818 9.8399 9.47559 9.92401C9.48865 9.98288 9.36678 10.109 9.29279 10.1217C9.10998 10.1511 8.91411 10.1553 8.73131 10.1217C8.64861 10.1048 8.53979 9.97867 8.53979 9.89878C8.53979 9.83149 8.66167 9.73477 8.74872 9.69692C8.82706 9.66328 8.93152 9.68851 9.02728 9.69272Z" fill="white"/>
<path d="M4.99665 11.6194C5.07934 11.6194 5.1751 11.5942 5.24039 11.6236C5.33179 11.6657 5.45366 11.7498 5.45802 11.8213C5.46237 11.9012 5.36226 12.0358 5.27956 12.061C5.12722 12.103 4.94441 12.1114 4.79208 12.0736C4.68761 12.0484 4.61362 11.9138 4.52222 11.8297C4.62233 11.7582 4.71373 11.6783 4.81819 11.6236C4.86607 11.5984 4.94006 11.6194 4.99665 11.6194Z" fill="white"/>
<path d="M7.00752 11.6225C7.10328 11.6225 7.20339 11.6057 7.28609 11.6267C7.35137 11.6435 7.43843 11.7108 7.45148 11.7697C7.46889 11.8454 7.42537 12.0052 7.3949 12.0094C7.13375 12.0304 6.87259 12.0346 6.61144 12.0178C6.57662 12.0136 6.51568 11.858 6.53309 11.7907C6.5505 11.7234 6.64626 11.6562 6.72025 11.6309C6.81166 11.6015 6.91612 11.6225 7.00752 11.6225Z" fill="white"/>
<path d="M4.99672 5.29447C4.90096 5.29447 4.7965 5.3197 4.71816 5.28606C4.63981 5.25242 4.54405 5.1557 4.5397 5.08421C4.53535 5.01272 4.62675 4.87815 4.69639 4.86974C4.88791 4.8403 5.09683 4.83189 5.28834 4.86554C5.36233 4.87815 5.4668 5.02113 5.46244 5.10103C5.45809 5.17252 5.33187 5.25242 5.24046 5.29447C5.17082 5.3239 5.07506 5.29867 4.99672 5.29447C4.99672 5.29867 4.99672 5.29867 4.99672 5.29447Z" fill="white"/>
<path d="M6.99901 5.29927C6.91631 5.29927 6.82056 5.3245 6.75527 5.29507C6.66822 5.25302 6.54199 5.16471 6.54199 5.09742C6.54199 5.01752 6.6421 4.89137 6.7248 4.86614C6.86408 4.82408 7.03818 4.81567 7.17311 4.85773C7.28628 4.89137 7.37333 5.01752 7.47344 5.10163C7.37333 5.16891 7.27757 5.2446 7.16876 5.30348C7.12523 5.3203 7.05559 5.30348 6.99901 5.29927Z" fill="white"/>
<path d="M7.0032 10.6565C7.08589 10.6565 7.18165 10.6313 7.24694 10.665C7.33399 10.707 7.46021 10.7953 7.46021 10.8668C7.46457 10.9467 7.35575 11.0771 7.27741 11.0981C7.11201 11.1359 6.9205 11.1401 6.7551 11.1023C6.6637 11.0813 6.60276 10.9467 6.52441 10.8584C6.61147 10.7911 6.69416 10.7112 6.78992 10.6608C6.85086 10.6313 6.93355 10.6565 7.0032 10.6565Z" fill="white"/>
<path d="M5.01845 10.6554C5.10114 10.6554 5.19255 10.6302 5.26219 10.6596C5.34489 10.6975 5.46241 10.7816 5.45805 10.8405C5.44935 10.9288 5.36665 11.0718 5.29266 11.0886C5.1142 11.1264 4.91834 11.1306 4.73553 11.097C4.65283 11.0844 4.52225 10.9372 4.53966 10.8825C4.56143 10.7942 4.67895 10.7143 4.7747 10.6638C4.83999 10.626 4.93575 10.6554 5.01845 10.6554Z" fill="white"/>
<path d="M7.00762 9.69663C7.10338 9.69663 7.20784 9.67139 7.29054 9.70504C7.36453 9.73027 7.46464 9.81858 7.46464 9.87745C7.46464 9.95735 7.38629 10.1003 7.32536 10.1087C7.11644 10.1382 6.89881 10.1424 6.69424 10.1171C6.62895 10.1087 6.53755 9.96996 6.5419 9.89427C6.54625 9.82699 6.64636 9.73447 6.72906 9.70083C6.8074 9.66719 6.91187 9.69242 7.00762 9.69663C7.00762 9.69242 7.00762 9.69242 7.00762 9.69663Z" fill="white"/>
<path d="M5.00979 9.69356C5.10555 9.69356 5.21001 9.66833 5.29271 9.70197C5.3667 9.7272 5.46681 9.81551 5.46246 9.87439C5.46246 9.95849 5.38846 10.0973 5.32753 10.1099C5.13166 10.1435 4.92709 10.1519 4.73123 10.1225C4.65288 10.1099 4.53971 9.97111 4.54407 9.89541C4.54842 9.82392 4.67464 9.73982 4.76605 9.69777C4.83134 9.66412 4.92709 9.69356 5.00979 9.69356Z" fill="white"/>
<path d="M2.95964 6.2607C2.87694 6.2607 2.78118 6.28593 2.7159 6.25229C2.6332 6.21024 2.51568 6.11352 2.52438 6.05464C2.53744 5.97054 2.63755 5.85279 2.72025 5.83177C2.87694 5.79392 3.05539 5.78551 3.20773 5.82336C3.3122 5.84859 3.38619 5.97895 3.47324 6.05885C3.38184 6.12613 3.30349 6.20603 3.19903 6.25229C3.13809 6.29013 3.04234 6.2649 2.95964 6.2607Z" fill="white"/>
<path d="M8.97928 6.26229C8.89658 6.26229 8.80517 6.28752 8.73553 6.25808C8.65283 6.22024 8.53532 6.13193 8.53967 6.07726C8.54837 5.98895 8.63542 5.85859 8.71377 5.84177C8.87917 5.80392 9.06633 5.79972 9.23608 5.83336C9.33183 5.85438 9.40583 5.97634 9.48853 6.05203C9.40147 6.12352 9.31878 6.21183 9.21867 6.26229C9.15338 6.29173 9.05762 6.2665 8.97928 6.26229C8.97928 6.2665 8.97928 6.2665 8.97928 6.26229Z" fill="white"/>
<path d="M2.98594 7.22904C2.90324 7.22904 2.80749 7.25427 2.7422 7.22063C2.65079 7.17437 2.52892 7.08606 2.52892 7.01037C2.52457 6.93888 2.64644 6.82113 2.73349 6.80011C2.87713 6.76226 3.04252 6.75805 3.18616 6.7959C3.29497 6.82113 3.38202 6.93467 3.47778 7.00616C3.38638 7.08186 3.29932 7.16596 3.19486 7.22483C3.13828 7.25427 3.05558 7.23324 2.98594 7.22904Z" fill="white"/>
<path d="M8.98807 7.22411C8.89666 7.22411 8.78785 7.24934 8.7095 7.2157C8.63116 7.18206 8.5354 7.08534 8.5354 7.01385C8.5354 6.94236 8.6268 6.82041 8.7008 6.8078C8.85749 6.77416 9.03159 6.76154 9.18828 6.79518C9.2971 6.82041 9.3885 6.92975 9.48861 7.00544C9.39285 7.08114 9.30145 7.16945 9.19699 7.22411C9.14476 7.25355 9.05771 7.22832 8.98807 7.22832C8.98807 7.22832 8.98807 7.22832 8.98807 7.22411Z" fill="white"/>
<path d="M3.12083 7.75806C3.11648 7.75806 3.22094 7.73704 3.29929 7.77488C3.37763 7.81273 3.46904 7.91366 3.46468 7.98514C3.46468 8.05663 3.36458 8.17017 3.29058 8.187C3.12083 8.22064 2.93367 8.22905 2.76828 8.19541C2.67252 8.17438 2.59417 8.05663 2.51147 7.98094C2.59853 7.90945 2.67687 7.82114 2.77698 7.77068C2.84227 7.72863 2.93803 7.75806 3.12083 7.75806Z" fill="white"/>
<path d="M9.01414 8.72605C9.09684 8.72605 9.19259 8.70082 9.25788 8.73446C9.34929 8.78072 9.47116 8.86902 9.47551 8.94051C9.47986 9.012 9.35799 9.13395 9.27529 9.15498C9.1186 9.19283 8.9445 9.19283 8.78781 9.15918C8.69205 9.13816 8.6137 9.02462 8.53101 8.94892C8.62241 8.87323 8.70946 8.78492 8.80957 8.73025C8.85745 8.70082 8.9445 8.72184 9.01414 8.72605Z" fill="white"/>
<path d="M3.00331 8.72575C3.07295 8.72575 3.15565 8.70052 3.21224 8.72996C3.30799 8.78042 3.39069 8.86032 3.47774 8.93181C3.3994 9.0117 3.33411 9.13366 3.23835 9.15889C3.08601 9.19673 2.90756 9.19253 2.75087 9.15889C2.65946 9.14207 2.58982 9.02853 2.51147 8.96124C2.59417 8.88134 2.66381 8.78883 2.75957 8.73416C2.82486 8.69631 2.92062 8.72575 3.00331 8.72575Z" fill="white"/>
<path d="M9.0141 8.19633C8.91834 8.19633 8.81388 8.22577 8.73554 8.18792C8.64849 8.14587 8.53532 8.04494 8.53967 7.97345C8.53967 7.90197 8.65719 7.79263 8.74424 7.7674C8.87482 7.73376 9.03151 7.72535 9.16209 7.76319C9.28396 7.79684 9.37972 7.90617 9.48853 7.98187C9.37536 8.05335 9.2709 8.13325 9.15338 8.19633C9.11856 8.21736 9.06198 8.20054 9.0141 8.19633Z" fill="white"/>
<path d="M4.99681 6.26152C4.90106 6.26152 4.7966 6.28675 4.71825 6.25311C4.6399 6.21526 4.53979 6.12275 4.53979 6.05126C4.53979 5.97977 4.6312 5.85782 4.70519 5.841C4.86188 5.80736 5.04034 5.79474 5.19703 5.82838C5.30149 5.85362 5.38419 5.97557 5.47559 6.05547C5.37549 6.12695 5.27973 6.20265 5.17527 6.26152C5.13174 6.28675 5.05775 6.26573 5.00117 6.26573C4.99681 6.26573 4.99681 6.26152 4.99681 6.26152Z" fill="white"/>
<path d="M4.99669 9.1669C4.92705 9.1669 4.84 9.19213 4.78776 9.16269C4.69201 9.10803 4.60931 9.02392 4.52661 8.94823C4.62237 8.87253 4.70507 8.7674 4.81388 8.72956C4.9314 8.69171 5.07939 8.69171 5.19691 8.72956C5.30572 8.7674 5.38407 8.87674 5.47547 8.95243C5.38842 9.02392 5.30572 9.10803 5.20561 9.15849C5.15338 9.19213 5.07068 9.1669 4.99669 9.1669Z" fill="white"/>
<path d="M4.90541 8.20065C4.89235 8.20065 4.78354 8.22167 4.70954 8.18383C4.6312 8.14598 4.53979 8.04505 4.53979 7.97357C4.54415 7.90208 4.64426 7.79274 4.71825 7.77592C4.86188 7.74228 5.02728 7.73387 5.17092 7.76751C5.27973 7.79274 5.37113 7.89787 5.47124 7.96936C5.36678 8.04505 5.26667 8.13336 5.15786 8.19644C5.11433 8.22167 5.04469 8.20065 4.90541 8.20065Z" fill="white"/>
<path d="M7.00324 7.22874C6.92054 7.22874 6.82478 7.25397 6.75949 7.22453C6.66809 7.18248 6.6028 7.09417 6.52881 7.02689C6.60715 6.95119 6.6768 6.83345 6.77255 6.80401C6.90313 6.76617 7.05982 6.76196 7.1904 6.79981C7.29921 6.83345 7.38191 6.94278 7.47767 7.01848C7.37756 7.08997 7.28615 7.16987 7.18169 7.22874C7.13381 7.25397 7.06417 7.23294 7.00324 7.22874Z" fill="white"/>
<path d="M5.00539 6.7905C5.07503 6.7905 5.16208 6.76527 5.21432 6.79471C5.31007 6.84937 5.38842 6.93348 5.47547 7.00497C5.37971 7.08066 5.29701 7.18579 5.19255 7.22364C5.07503 7.26148 4.92705 7.26148 4.80953 7.22364C4.70071 7.18579 4.62237 7.07645 4.52661 7.00076C4.61366 6.92927 4.69636 6.84517 4.79647 6.79471C4.8487 6.76527 4.9314 6.7863 5.00539 6.7905Z" fill="white"/>
<path d="M7.00335 8.19164C6.90759 8.19164 6.80313 8.21687 6.72479 8.18323C6.64644 8.14959 6.53327 8.04446 6.54198 7.98979C6.55504 7.90569 6.65514 7.78794 6.73784 7.77112C6.89453 7.73327 7.07299 7.73327 7.22968 7.76692C7.32544 7.78794 7.39943 7.90989 7.48213 7.98138C7.39508 8.05287 7.31673 8.13698 7.21662 8.19164C7.16439 8.22108 7.07734 8.19585 7.0077 8.19585C7.00335 8.19585 7.00335 8.19585 7.00335 8.19164Z" fill="white"/>
<path d="M6.99901 6.26068C6.90325 6.26068 6.79879 6.28591 6.72045 6.25227C6.6421 6.21862 6.54634 6.1219 6.54199 6.05042C6.54199 5.97893 6.6334 5.85698 6.70739 5.84016C6.86408 5.80231 7.04254 5.78969 7.19488 5.82754C7.29934 5.85277 7.38204 5.97472 7.47344 6.05462C7.37333 6.12611 7.27757 6.2018 7.16876 6.26068C7.12523 6.28591 7.05124 6.26488 6.99466 6.26488C6.99901 6.26488 6.99901 6.26068 6.99901 6.26068Z" fill="white"/>
<path d="M7.00328 8.72979C7.09904 8.72979 7.2035 8.70456 7.28184 8.7382C7.36019 8.77184 7.4603 8.86856 7.46465 8.94005C7.469 9.01154 7.37325 9.13349 7.29925 9.15031C7.14256 9.18395 6.96411 9.19657 6.81177 9.16292C6.70731 9.13769 6.62461 9.01574 6.5332 8.94005C6.63331 8.86856 6.72472 8.79286 6.83353 8.73399C6.87705 8.70876 6.95105 8.72979 7.00763 8.72979C7.00328 8.72558 7.00328 8.72558 7.00328 8.72979Z" fill="white"/>
</svg>
