<svg width="14" height="14" viewBox="0 0 14 14" fill="none" xmlns="http://www.w3.org/2000/svg">
<path d="M12.1042 2.44922H1.89583C1.57367 2.44922 1.3125 2.71039 1.3125 3.03255V10.9659C1.3125 11.2881 1.57367 11.5492 1.89583 11.5492H12.1042C12.4263 11.5492 12.6875 11.2881 12.6875 10.9659V3.03255C12.6875 2.71039 12.4263 2.44922 12.1042 2.44922Z" stroke="white" stroke-width="0.5" stroke-linecap="round" stroke-linejoin="round"/>
<path d="M11.2292 3.61719H2.77091C2.60983 3.61719 2.47925 3.74777 2.47925 3.90885V10.0922C2.47925 10.2533 2.60983 10.3839 2.77091 10.3839H11.2292C11.3903 10.3839 11.5209 10.2533 11.5209 10.0922V3.90885C11.5209 3.74777 11.3903 3.61719 11.2292 3.61719Z" stroke="white" stroke-width="0.5" stroke-linecap="round" stroke-linejoin="round"/>
<path d="M10.5876 9.74414H8.65674V10.3829H10.5876V9.74414Z" stroke="white" stroke-width="0.5" stroke-linecap="round" stroke-linejoin="round"/>
<path d="M7.53668 5.54091C7.46625 5.47036 7.38259 5.41439 7.2905 5.3762C7.19842 5.33802 7.0997 5.31836 7.00001 5.31836C6.90032 5.31836 6.80161 5.33802 6.70952 5.3762C6.61743 5.41439 6.53378 5.47036 6.46335 5.54091C6.37526 5.62943 6.31031 5.73826 6.27421 5.8578C6.2381 5.97734 6.23196 6.10393 6.25633 6.22641C6.28069 6.34888 6.33481 6.46348 6.41392 6.56011C6.49302 6.65673 6.59468 6.73241 6.70994 6.78048C6.82519 6.82854 6.9505 6.84752 7.07482 6.83573C7.19913 6.82394 7.31864 6.78175 7.42281 6.71287C7.52697 6.644 7.61259 6.55056 7.67213 6.44079C7.73166 6.33102 7.76327 6.20829 7.76418 6.08341C7.76456 5.98182 7.74405 5.88124 7.70391 5.78791C7.66376 5.69458 7.60486 5.61051 7.53085 5.54091H7.53668Z" stroke="white" stroke-width="0.5" stroke-linecap="round" stroke-linejoin="round"/>
<path d="M6.41675 7.44531H7.58341C7.81548 7.44531 8.03804 7.5375 8.20213 7.70159C8.36623 7.86569 8.45841 8.08825 8.45841 8.32031V8.67323H5.54175V8.32031C5.54175 8.08825 5.63394 7.86569 5.79803 7.70159C5.96212 7.5375 6.18468 7.44531 6.41675 7.44531Z" stroke="white" stroke-width="0.5" stroke-linecap="round" stroke-linejoin="round"/>
<path d="M5.08092 6.26239C5.02669 6.20772 4.96218 6.16432 4.89109 6.13471C4.82001 6.10509 4.74376 6.08984 4.66676 6.08984C4.58975 6.08984 4.5135 6.10509 4.44242 6.13471C4.37133 6.16432 4.30682 6.20772 4.25259 6.26239C4.1854 6.33016 4.13586 6.41338 4.10832 6.50475C4.08078 6.59612 4.07607 6.69285 4.09462 6.78646C4.11316 6.88008 4.15439 6.96771 4.21469 7.04168C4.27499 7.11564 4.35251 7.17369 4.44046 7.21072C4.52842 7.24776 4.62411 7.26264 4.71916 7.25408C4.8142 7.24552 4.9057 7.21377 4.98562 7.16162C5.06554 7.10947 5.13144 7.03851 5.17755 6.95495C5.22366 6.8714 5.24857 6.77781 5.25009 6.68239C5.25016 6.60472 5.23471 6.52782 5.20466 6.4562C5.17461 6.38458 5.13056 6.31968 5.07509 6.26531L5.08092 6.26239Z" stroke="white" stroke-width="0.5" stroke-linecap="round" stroke-linejoin="round"/>
<path d="M5.64076 7.91615C5.58629 7.85661 5.52007 7.80902 5.44627 7.77639C5.37247 7.74376 5.2927 7.72679 5.21201 7.72656H4.12118C3.96647 7.72656 3.81809 7.78802 3.7087 7.89742C3.5993 8.00681 3.53784 8.15519 3.53784 8.3099V8.67448H5.54159" stroke="white" stroke-width="0.5" stroke-linecap="round" stroke-linejoin="round"/>
<path d="M9.74743 6.26239C9.6932 6.20772 9.62868 6.16432 9.5576 6.13471C9.48651 6.10509 9.41027 6.08984 9.33326 6.08984C9.25625 6.08984 9.18001 6.10509 9.10892 6.13471C9.03784 6.16432 8.97332 6.20772 8.91909 6.26239C8.8519 6.33016 8.80236 6.41338 8.77482 6.50475C8.74728 6.59612 8.74258 6.69285 8.76112 6.78646C8.77967 6.88008 8.8209 6.96771 8.88119 7.04168C8.94149 7.11564 9.01901 7.17369 9.10697 7.21072C9.19492 7.24776 9.29062 7.26264 9.38566 7.25408C9.48071 7.24552 9.5722 7.21377 9.65212 7.16162C9.73204 7.10947 9.79795 7.03851 9.84406 6.95495C9.89017 6.8714 9.91507 6.77781 9.91659 6.68239C9.91666 6.60472 9.90121 6.52782 9.87116 6.4562C9.84111 6.38458 9.79706 6.31968 9.74159 6.26531L9.74743 6.26239Z" stroke="white" stroke-width="0.5" stroke-linecap="round" stroke-linejoin="round"/>
<path d="M8.4583 8.67448H10.4591V8.3099C10.4591 8.15519 10.3977 8.00681 10.2883 7.89742C10.1789 7.78802 10.0305 7.72656 9.8758 7.72656H8.78788C8.70719 7.72679 8.62742 7.74376 8.55362 7.77639C8.47982 7.80902 8.4136 7.85661 8.35913 7.91615" stroke="white" stroke-width="0.5" stroke-linecap="round" stroke-linejoin="round"/>
</svg>
