<svg width="14" height="14" viewBox="0 0 14 14" fill="none" xmlns="http://www.w3.org/2000/svg">
<path d="M9.91675 11.6673H12.8334V10.5007C12.8334 9.53415 12.0499 8.75065 11.0834 8.75065C10.526 8.75065 10.0294 9.01128 9.70894 9.41734M9.91675 11.6673H4.08341M9.91675 11.6673V10.5007C9.91675 10.1178 9.843 9.75226 9.70894 9.41734M4.08341 11.6673H1.16675V10.5007C1.16675 9.53415 1.95025 8.75065 2.91675 8.75065C3.47419 8.75065 3.97075 9.01128 4.29122 9.41734M4.08341 11.6673V10.5007C4.08341 10.1178 4.15716 9.75226 4.29122 9.41734M4.29122 9.41734C4.72129 8.34292 5.77206 7.58398 7.00008 7.58398C8.22811 7.58398 9.27887 8.34292 9.70894 9.41734M8.75008 4.08398C8.75008 5.05048 7.96658 5.83398 7.00008 5.83398C6.03358 5.83398 5.25008 5.05048 5.25008 4.08398C5.25008 3.11749 6.03358 2.33398 7.00008 2.33398C7.96658 2.33398 8.75008 3.11749 8.75008 4.08398ZM12.2501 5.83398C12.2501 6.47832 11.7277 7.00065 11.0834 7.00065C10.4391 7.00065 9.91675 6.47832 9.91675 5.83398C9.91675 5.18965 10.4391 4.66732 11.0834 4.66732C11.7277 4.66732 12.2501 5.18965 12.2501 5.83398ZM4.08341 5.83398C4.08341 6.47832 3.56108 7.00065 2.91675 7.00065C2.27242 7.00065 1.75008 6.47832 1.75008 5.83398C1.75008 5.18965 2.27242 4.66732 2.91675 4.66732C3.56108 4.66732 4.08341 5.18965 4.08341 5.83398Z" stroke="white" stroke-linecap="round" stroke-linejoin="round"/>
</svg>
