<svg width="14" height="14" viewBox="0 0 14 14" fill="none" xmlns="http://www.w3.org/2000/svg">
<path d="M7 2.53994C7.42755 2.05552 8.0531 1.75 8.75 1.75C10.0387 1.75 11.0833 2.79467 11.0833 4.08333C11.0833 5.372 10.0387 6.41667 8.75 6.41667C8.0531 6.41667 7.42755 6.11114 7 5.62673M8.75 12.25H1.75V11.6667C1.75 9.73367 3.317 8.16667 5.25 8.16667C7.183 8.16667 8.75 9.73367 8.75 11.6667V12.25ZM8.75 12.25H12.25V11.6667C12.25 9.73367 10.683 8.16667 8.75 8.16667C8.1125 8.16667 7.5148 8.33711 7 8.6349M7.58333 4.08333C7.58333 5.372 6.53866 6.41667 5.25 6.41667C3.96134 6.41667 2.91667 5.372 2.91667 4.08333C2.91667 2.79467 3.96134 1.75 5.25 1.75C6.53866 1.75 7.58333 2.79467 7.58333 4.08333Z" stroke="white" stroke-linecap="round" stroke-linejoin="round"/>
</svg>
