<svg width="13" height="13" viewBox="0 0 13 13" fill="none" xmlns="http://www.w3.org/2000/svg">
<path fill-rule="evenodd" clip-rule="evenodd" d="M7.03668 1.55471C7.00104 1.28537 6.77137 1.08398 6.49967 1.08398C6.22792 1.08398 5.99825 1.28533 5.96267 1.55471L5.96207 1.55905L5.95958 1.57697C5.95719 1.59334 5.95351 1.61837 5.94837 1.6511C5.93813 1.71661 5.9222 1.81273 5.89989 1.93182C5.85509 2.17063 5.78532 2.49861 5.68539 2.85568C5.47739 3.59928 5.16809 4.35786 4.76249 4.76347C4.35688 5.16907 3.59831 5.47836 2.8547 5.68636C2.49763 5.7863 2.16965 5.85607 1.93084 5.90086C1.81175 5.92318 1.71563 5.9391 1.65013 5.94934C1.61739 5.95449 1.59236 5.95817 1.57599 5.96056L1.55807 5.96305L1.55421 5.96359C1.55417 5.96359 1.55426 5.96359 1.55421 5.96359C1.55419 5.96359 1.55369 5.96364 1.55367 5.96364C1.28432 5.99928 1.08301 6.22895 1.08301 6.50065C1.08301 6.7724 1.28435 7.00207 1.55374 7.03766L1.55807 7.03825L1.57599 7.04075C1.59236 7.04313 1.61739 7.04681 1.65013 7.05196C1.71563 7.0622 1.81175 7.07812 1.93084 7.10044C2.16965 7.14523 2.49763 7.215 2.8547 7.31494C3.59831 7.52294 4.35688 7.83223 4.76249 8.23783C5.16809 8.64343 5.47739 9.40203 5.68539 10.1456C5.78532 10.5027 5.85509 10.8307 5.89989 11.0695C5.9222 11.1886 5.93813 11.2847 5.94837 11.3502C5.95351 11.3829 5.95719 11.4079 5.95958 11.4243L5.96207 11.4423L5.96261 11.4461C5.96261 11.4461 5.96261 11.4462 5.96261 11.4461C5.9982 11.7155 6.22792 11.9173 6.49967 11.9173C6.77143 11.9173 7.00109 11.716 7.03668 11.4466L7.03728 11.4423L7.03977 11.4243C7.04215 11.4079 7.04584 11.3829 7.05098 11.3502C7.06122 11.2847 7.07714 11.1886 7.09946 11.0695C7.14426 10.8307 7.21402 10.5027 7.31396 10.1456C7.52196 9.40203 7.83125 8.64343 8.23685 8.23783C8.64245 7.83223 9.40106 7.52294 10.1447 7.31494C10.5017 7.215 10.8297 7.14523 11.0685 7.10044C11.1876 7.07812 11.2837 7.0622 11.3492 7.05196C11.3819 7.04681 11.407 7.04313 11.4234 7.04075L11.4413 7.03825L11.4451 7.03771C11.4451 7.03771 11.4452 7.03771 11.4451 7.03771C11.7145 7.00213 11.9163 6.7724 11.9163 6.50065C11.9163 6.2289 11.715 5.99923 11.4456 5.96364L11.4413 5.96305L11.4234 5.96056C11.407 5.95817 11.3819 5.95449 11.3492 5.94934C11.2837 5.9391 11.1876 5.92318 11.0685 5.90086C10.8297 5.85607 10.5017 5.7863 10.1447 5.68636C9.40106 5.47836 8.64245 5.16907 8.23685 4.76347C7.83125 4.35786 7.52196 3.59928 7.31396 2.85568C7.21402 2.49861 7.14426 2.17063 7.09946 1.93182C7.07714 1.81273 7.06122 1.71661 7.05098 1.6511C7.04584 1.61837 7.04215 1.59334 7.03977 1.57697L7.03728 1.55905L7.03668 1.55471ZM9.13878 6.50065C8.53872 6.28008 7.90914 5.96781 7.47083 5.5295C7.03251 5.09119 6.72024 4.46162 6.49967 3.86152C6.27911 4.46162 5.96684 5.09119 5.52852 5.5295C5.09021 5.96781 4.46065 6.28008 3.86054 6.50065C4.46065 6.72122 5.09021 7.03349 5.52852 7.4718C5.96684 7.91012 6.27911 8.5397 6.49967 9.13976C6.72024 8.5397 7.03251 7.91012 7.47083 7.4718C7.90914 7.03349 8.53872 6.72122 9.13878 6.50065Z" fill="#F0BA4A"/>
</svg>
