<svg width="14" height="14" viewBox="0 0 14 14" fill="none" xmlns="http://www.w3.org/2000/svg">
<path d="M9.91667 4.66732H11.0833C11.7277 4.66732 12.25 5.18965 12.25 5.83398V9.33398C12.25 9.97832 11.7277 10.5007 11.0833 10.5007H9.91667V12.834L7.58333 10.5007H5.25C4.92783 10.5007 4.63617 10.3701 4.42504 10.1589M4.42504 10.1589L6.41667 8.16732H8.75C9.39433 8.16732 9.91667 7.64498 9.91667 7.00065V3.50065C9.91667 2.85632 9.39433 2.33398 8.75 2.33398H2.91667C2.27233 2.33398 1.75 2.85632 1.75 3.50065V7.00065C1.75 7.64498 2.27233 8.16732 2.91667 8.16732H4.08333V10.5007L4.42504 10.1589Z" stroke="white" stroke-linecap="round" stroke-linejoin="round"/>
</svg>
