<svg width="14" height="14" viewBox="0 0 14 14" fill="none" xmlns="http://www.w3.org/2000/svg">
<path d="M1.50268 7.00676C1.50268 6.92678 1.50268 6.86405 1.50268 6.79976C1.50268 4.65758 1.50268 2.51384 1.50268 0.371666C1.50111 0.0533191 1.55601 0 1.87914 0C5.28919 0 8.69767 0 12.1077 0C12.1469 0 12.1877 0 12.2269 0C12.4183 0.00627284 12.4983 0.0862515 12.4983 0.279141C12.4999 1.36591 12.4983 2.45268 12.4983 3.53788C12.4983 4.64504 12.4983 5.75063 12.4983 6.85778C12.4983 6.90169 12.503 6.9456 12.5077 7.00676C12.7336 7.00676 12.9532 7.00676 13.1712 7.00676C13.3563 7.00676 13.5414 7.00519 13.7265 7.00676C13.9131 7.0099 13.9994 7.09772 13.9994 7.2859C14.001 7.6262 13.9994 7.96651 13.9994 8.30681C13.9994 10.0946 13.9994 11.8808 13.9994 13.6685C13.9994 13.932 13.9335 13.9994 13.6747 13.9994C9.22471 13.9994 4.77313 13.9994 0.323124 13.9994C0.0705852 14.001 0 13.9335 0 13.6842C0 11.6471 0 9.60842 0 7.57132C0 7.46311 0 7.3549 0.00156856 7.2467C0.00313712 7.10085 0.103525 7.00833 0.269793 7.00833C0.619582 7.00519 0.970939 7.00676 1.32073 7.00676C1.37563 7.00676 1.42896 7.00676 1.50268 7.00676ZM1.99207 0.493986C1.98894 0.55201 1.9858 0.592783 1.9858 0.631989C1.9858 3.08467 1.9858 5.53578 1.98266 7.98846C1.98266 8.08569 2.01403 8.14058 2.09403 8.1939C3.68926 9.25401 5.28291 10.3157 6.875 11.3821C6.96755 11.4448 7.03029 11.4479 7.1244 11.3836C8.71179 10.3204 10.3007 9.26028 11.8928 8.20331C11.9822 8.14371 12.0183 8.08255 12.0183 7.97435C12.0152 5.53264 12.0152 3.09094 12.0152 0.649239C12.0152 0.600624 12.0105 0.55201 12.0073 0.493986C8.6663 0.493986 5.33624 0.493986 1.99207 0.493986ZM12.8246 13.5086C12.7916 13.4788 12.7791 13.4647 12.7649 13.4552C11.4066 12.6492 10.0466 11.8447 8.68826 11.0355C8.61297 10.99 8.56591 11.0073 8.5016 11.0496C8.07809 11.335 7.65301 11.6157 7.22793 11.8996C7.02872 12.0329 6.97382 12.0313 6.76991 11.8949C6.34954 11.6142 5.92916 11.335 5.51036 11.0512C5.43506 10.9994 5.38016 10.9947 5.29703 11.0433C3.95748 11.8416 2.61479 12.6366 1.2721 13.4333C1.24544 13.449 1.22191 13.4709 1.17799 13.5054C5.07116 13.5086 8.93452 13.5086 12.8246 13.5086ZM9.05217 10.6858C10.5501 11.5734 12.0215 12.4453 13.51 13.3266C13.51 11.4464 13.51 9.59431 13.51 7.71402C12.0199 8.70827 10.5486 9.6884 9.05217 10.6858ZM0.492528 7.71402C0.492528 9.59588 0.492528 11.4479 0.492528 13.3266C1.9858 12.4422 3.45711 11.5703 4.95038 10.6858C3.45868 9.69154 1.98737 8.71141 0.492528 7.71402ZM1.49484 7.51173C1.35367 7.51173 1.22975 7.51173 1.07446 7.51173C1.22975 7.61366 1.35367 7.69521 1.49484 7.7893C1.49484 7.67639 1.49484 7.59798 1.49484 7.51173ZM12.5093 7.50388C12.5093 7.60268 12.5093 7.68266 12.5093 7.79087C12.6536 7.69364 12.7775 7.60895 12.9328 7.50388C12.7665 7.50388 12.6442 7.50388 12.5093 7.50388Z" fill="white"/>
<path d="M10.0217 8.29364C9.96057 8.35323 9.90253 8.44419 9.8194 8.48339C9.70803 8.53514 9.60137 8.47869 9.54177 8.36891C9.49941 8.2905 9.46334 8.20582 9.43667 8.12114C9.40687 8.02704 9.35824 7.98941 9.25315 7.99097C8.75278 7.99725 8.25241 7.99568 7.75204 7.99097C7.65635 7.98941 7.60302 8.0192 7.57636 8.11016C7.55754 8.17132 7.5293 8.23091 7.5042 8.2905C7.42891 8.46457 7.30813 8.53357 7.1701 8.48026C7.02109 8.42223 6.9756 8.2858 7.04932 8.10702C7.29872 7.5064 7.54812 6.90734 7.79753 6.30829C7.94968 5.94446 8.10339 5.58064 8.25241 5.21524C8.29946 5.10076 8.36221 5.01138 8.49867 5.00824C8.64141 5.0051 8.70729 5.09763 8.75749 5.21838C9.1559 6.17812 9.55588 7.13787 9.9543 8.09761C9.97469 8.14623 9.99037 8.19955 10.0217 8.29364ZM9.17786 7.50483C8.95199 6.9638 8.73552 6.44315 8.50181 5.88644C8.26809 6.44786 8.05163 6.9685 7.8289 7.50483C8.28692 7.50483 8.71513 7.50483 9.17786 7.50483Z" fill="white"/>
<path d="M6.99562 2.49006C5.769 2.49006 4.54239 2.49006 3.31577 2.49006C3.12284 2.49006 3.02245 2.41949 3.00677 2.27678C2.98794 2.11369 3.09304 2.00235 3.28283 2.00078C3.65301 1.99607 4.02319 1.99921 4.39337 1.99921C6.47015 1.99921 8.54849 1.99921 10.6253 2.00078C10.6849 2.00078 10.746 1.99921 10.8041 2.01176C10.928 2.03685 10.9939 2.11839 10.9954 2.24542C10.997 2.37401 10.928 2.45242 10.8088 2.48379C10.7617 2.49633 10.71 2.49163 10.6598 2.49163C9.43787 2.49006 8.21753 2.49006 6.99562 2.49006Z" fill="white"/>
<path d="M7.00226 3.48774C5.78035 3.48774 4.56001 3.48774 3.3381 3.48774C3.3036 3.48774 3.26752 3.48931 3.23301 3.48617C3.09811 3.47676 3.01184 3.38738 3.00714 3.25408C3.004 3.11921 3.08086 3.01885 3.21733 3.00944C3.39144 2.99846 3.56711 3.00316 3.74279 3.00316C6.04074 3.00316 8.33711 3.00316 10.6351 3.00316C10.897 3.00316 11.0005 3.0753 10.9958 3.25251C10.9911 3.42344 10.8954 3.48617 10.6351 3.48617C9.42569 3.48774 8.21319 3.48774 7.00226 3.48774Z" fill="white"/>
<path d="M5.00362 4.99075C4.42796 4.99075 3.85387 4.99232 3.27821 4.99075C3.08214 4.99075 2.96449 4.85588 3.01312 4.68495C3.05233 4.54695 3.15586 4.50617 3.29076 4.50617C3.75034 4.50774 4.2115 4.50617 4.67109 4.50617C5.35184 4.50617 6.03103 4.50774 6.71179 4.50617C6.82629 4.50617 6.93139 4.5344 6.96589 4.64888C6.98629 4.72102 6.98629 4.83393 6.94393 4.88254C6.8906 4.9437 6.78551 4.98448 6.70081 4.98605C6.13456 4.99546 5.56831 4.99075 5.00362 4.99075Z" fill="white"/>
<path d="M9.99935 5.50688C10.0307 5.29988 9.93818 5.01133 10.2597 5.01603C10.5703 5.01917 10.4793 5.29988 10.5123 5.50688C10.5907 5.50688 10.6691 5.50218 10.7476 5.50845C10.906 5.51786 10.9954 5.60725 10.9938 5.75152C10.9938 5.89423 10.906 5.98519 10.746 5.99616C10.6723 6.00244 10.597 5.99773 10.4982 5.99773C10.4982 6.07301 10.4982 6.13573 10.4982 6.19846C10.4982 6.38508 10.4103 6.49172 10.2535 6.49172C10.0982 6.49172 10.0103 6.38822 10.0088 6.19846C10.0072 6.13887 10.0088 6.07928 10.0088 5.99773C9.91935 5.99773 9.84092 6.00244 9.76406 5.99616C9.60878 5.98519 9.51153 5.89109 9.50996 5.75466C9.50839 5.61352 9.61348 5.51472 9.77348 5.50845C9.84406 5.50374 9.91465 5.50688 9.99935 5.50688Z" fill="white"/>
</svg>
