<svg width="14" height="14" viewBox="0 0 14 14" fill="none" xmlns="http://www.w3.org/2000/svg">
<path d="M11.0833 11.6673H2.91667C2.27233 11.6673 1.75 11.145 1.75 10.5007L1.75 3.50065C1.75 2.85632 2.27233 2.33398 2.91667 2.33398L8.75 2.33398C9.39433 2.33398 9.91667 2.85632 9.91667 3.50065V4.08398M11.0833 11.6673C10.439 11.6673 9.91667 11.145 9.91667 10.5007L9.91667 4.08398M11.0833 11.6673C11.7277 11.6673 12.25 11.145 12.25 10.5007V5.25065C12.25 4.60632 11.7277 4.08398 11.0833 4.08398L9.91667 4.08398M7.58333 2.33398L5.25 2.33398M4.08333 9.33398H7.58333M4.08333 4.66732H7.58333V7.00065H4.08333V4.66732Z" stroke="white" stroke-linecap="round" stroke-linejoin="round"/>
</svg>
