<svg width="19" height="16" viewBox="0 0 19 16" fill="none" xmlns="http://www.w3.org/2000/svg">
<path d="M3.40949 5.82658C3.74598 2.79817 6.30576 0.507056 9.35281 0.507056V0.507056C12.3999 0.507056 14.9596 2.79817 15.2961 5.82658L15.5657 8.25246C15.5799 8.38065 15.587 8.44474 15.5951 8.50805C15.7313 9.58012 16.0803 10.6142 16.6217 11.5495C16.6537 11.6047 16.6869 11.66 16.7532 11.7706L17.372 12.8019C17.9801 13.8155 18.2842 14.3222 18.1774 14.734C18.1327 14.906 18.0437 15.0632 17.9192 15.19C17.6211 15.4934 17.0301 15.4934 15.8481 15.4934H2.85755C1.67553 15.4934 1.08452 15.4934 0.786435 15.19C0.661907 15.0632 0.572872 14.906 0.528246 14.734C0.421427 14.3222 0.725501 13.8155 1.33365 12.8019L1.95241 11.7706C2.01877 11.66 2.05195 11.6047 2.08392 11.5495C2.62528 10.6142 2.97432 9.58012 3.11054 8.50805C3.11859 8.44474 3.12571 8.38065 3.13995 8.25246L3.40949 5.82658Z" stroke="#1D1F71"/>
</svg>
