<svg width="14" height="14" viewBox="0 0 14 14" fill="none" xmlns="http://www.w3.org/2000/svg">
<path d="M9.9165 11.6673H12.8332V10.5007C12.8332 9.53415 12.0497 8.75065 11.0832 8.75065C10.5257 8.75065 10.0292 9.01128 9.70869 9.41734M9.9165 11.6673H4.08317M9.9165 11.6673V10.5007C9.9165 10.1178 9.84276 9.75226 9.70869 9.41734M4.08317 11.6673H1.1665V10.5007C1.1665 9.53415 1.95001 8.75065 2.9165 8.75065C3.47394 8.75065 3.9705 9.01128 4.29098 9.41734M4.08317 11.6673V10.5007C4.08317 10.1178 4.15692 9.75226 4.29098 9.41734M4.29098 9.41734C4.72105 8.34292 5.77181 7.58398 6.99984 7.58398C8.22786 7.58398 9.27863 8.34292 9.70869 9.41734M8.74984 4.08398C8.74984 5.05048 7.96634 5.83398 6.99984 5.83398C6.03334 5.83398 5.24984 5.05048 5.24984 4.08398C5.24984 3.11749 6.03334 2.33398 6.99984 2.33398C7.96634 2.33398 8.74984 3.11749 8.74984 4.08398ZM12.2498 5.83398C12.2498 6.47832 11.7275 7.00065 11.0832 7.00065C10.4388 7.00065 9.9165 6.47832 9.9165 5.83398C9.9165 5.18965 10.4388 4.66732 11.0832 4.66732C11.7275 4.66732 12.2498 5.18965 12.2498 5.83398ZM4.08317 5.83398C4.08317 6.47832 3.56084 7.00065 2.9165 7.00065C2.27217 7.00065 1.74984 6.47832 1.74984 5.83398C1.74984 5.18965 2.27217 4.66732 2.9165 4.66732C3.56084 4.66732 4.08317 5.18965 4.08317 5.83398Z" stroke="white" stroke-linecap="round" stroke-linejoin="round"/>
</svg>
