<svg width="14" height="14" viewBox="0 0 14 14" fill="none" xmlns="http://www.w3.org/2000/svg">
<path d="M6.0227 2.51843C6.27143 1.49386 7.72857 1.49386 7.9773 2.51843C8.13798 3.18029 8.89627 3.49439 9.47789 3.14C10.3783 2.59139 11.4086 3.62174 10.86 4.52211C10.5056 5.10373 10.8197 5.86202 11.4816 6.0227C12.5061 6.27143 12.5061 7.72857 11.4816 7.9773C10.8197 8.13798 10.5056 8.89627 10.86 9.47789C11.4086 10.3783 10.3783 11.4086 9.47789 10.86C8.89627 10.5056 8.13798 10.8197 7.9773 11.4816C7.72857 12.5061 6.27143 12.5061 6.0227 11.4816C5.86202 10.8197 5.10373 10.5056 4.52211 10.86C3.62174 11.4086 2.59139 10.3783 3.14 9.47789C3.49439 8.89627 3.18029 8.13798 2.51843 7.9773C1.49386 7.72857 1.49386 6.27143 2.51843 6.0227C3.18029 5.86202 3.49439 5.10373 3.14 4.52211C2.59139 3.62174 3.62174 2.59139 4.52211 3.14C5.10373 3.49439 5.86202 3.18029 6.0227 2.51843Z" stroke="white" stroke-linecap="round" stroke-linejoin="round"/>
<path d="M8.75 7C8.75 7.9665 7.9665 8.75 7 8.75C6.0335 8.75 5.25 7.9665 5.25 7C5.25 6.0335 6.0335 5.25 7 5.25C7.9665 5.25 8.75 6.0335 8.75 7Z" stroke="white" stroke-linecap="round" stroke-linejoin="round"/>
</svg>
